<?xml version="1.0" encoding="iso-8859-1"?>
<!-- Generator: Adobe Illustrator 19.0.0, SVG Export Plug-In . SVG Version: 6.00 Build 0)  -->
<svg version="1.1" id="Capa_1" xmlns="http://www.w3.org/2000/svg" xmlns:xlink="http://www.w3.org/1999/xlink" x="0px" y="0px"
	 viewBox="0 0 53 53" style="enable-background:new 0 0 53 53;" xml:space="preserve">
<path d="M53,26.5c0-0.828-0.672-1.5-1.5-1.5h-1.379l1.439-1.439c0.586-0.586,0.586-1.535,0-2.121s-1.535-0.586-2.121,0L45.879,25
	h-3.758l1.439-1.439c0.586-0.586,0.586-1.535,0-2.121s-1.535-0.586-2.121,0L37.879,25h-7.758l10-10H45.5c0.828,0,1.5-0.672,1.5-1.5
	S46.328,12,45.5,12h-2.379l2.439-2.439c0.586-0.586,0.586-1.535,0-2.121s-1.535-0.586-2.121,0L41,9.879V7.5
	C41,6.672,40.328,6,39.5,6S38,6.672,38,7.5v5.379l-10,10v-7.758l3.561-3.561c0.586-0.586,0.586-1.535,0-2.121s-1.535-0.586-2.121,0
	L28,10.879V7.121l3.561-3.561c0.586-0.586,0.586-1.535,0-2.121s-1.535-0.586-2.121,0L28,2.879V1.5C28,0.672,27.328,0,26.5,0
	S25,0.672,25,1.5v1.379l-1.439-1.439c-0.586-0.586-1.535-0.586-2.121,0s-0.586,1.535,0,2.121L25,7.121v3.758l-1.439-1.439
	c-0.586-0.586-1.535-0.586-2.121,0s-0.586,1.535,0,2.121L25,15.121v7.758l-10-10V7.5C15,6.672,14.328,6,13.5,6S12,6.672,12,7.5
	v2.379L9.561,7.439c-0.586-0.586-1.535-0.586-2.121,0s-0.586,1.535,0,2.121L9.879,12H7.5C6.672,12,6,12.672,6,13.5S6.672,15,7.5,15
	h5.379l10,10h-7.758l-3.561-3.561c-0.586-0.586-1.535-0.586-2.121,0s-0.586,1.535,0,2.121L10.879,25H7.121l-3.561-3.561
	c-0.586-0.586-1.535-0.586-2.121,0s-0.586,1.535,0,2.121L2.879,25H1.5C0.672,25,0,25.672,0,26.5S0.672,28,1.5,28h1.379l-1.439,1.439
	c-0.586,0.586-0.586,1.535,0,2.121C1.732,31.854,2.116,32,2.5,32s0.768-0.146,1.061-0.439L7.121,28h3.758l-1.439,1.439
	c-0.586,0.586-0.586,1.535,0,2.121C9.732,31.854,10.116,32,10.5,32s0.768-0.146,1.061-0.439L15.121,28h7.758l-10,10H7.5
	C6.672,38,6,38.672,6,39.5S6.672,41,7.5,41h2.379l-2.439,2.439c-0.586,0.586-0.586,1.535,0,2.121C7.732,45.854,8.116,46,8.5,46
	s0.768-0.146,1.061-0.439L12,43.121V45.5c0,0.828,0.672,1.5,1.5,1.5s1.5-0.672,1.5-1.5v-5.379l10-10v7.758l-3.561,3.561
	c-0.586,0.586-0.586,1.535,0,2.121C21.732,43.854,22.116,44,22.5,44s0.768-0.146,1.061-0.439L25,42.121v3.758l-3.561,3.561
	c-0.586,0.586-0.586,1.535,0,2.121C21.732,51.854,22.116,52,22.5,52s0.768-0.146,1.061-0.439L25,50.121V51.5
	c0,0.828,0.672,1.5,1.5,1.5s1.5-0.672,1.5-1.5v-1.379l1.439,1.439C29.732,51.854,30.116,52,30.5,52s0.768-0.146,1.061-0.439
	c0.586-0.586,0.586-1.535,0-2.121L28,45.879v-3.758l1.439,1.439C29.732,43.854,30.116,44,30.5,44s0.768-0.146,1.061-0.439
	c0.586-0.586,0.586-1.535,0-2.121L28,37.879v-7.758l10,10V45.5c0,0.828,0.672,1.5,1.5,1.5s1.5-0.672,1.5-1.5v-2.379l2.439,2.439
	C43.732,45.854,44.116,46,44.5,46s0.768-0.146,1.061-0.439c0.586-0.586,0.586-1.535,0-2.121L43.121,41H45.5
	c0.828,0,1.5-0.672,1.5-1.5S46.328,38,45.5,38h-5.379l-10-10h7.758l3.561,3.561C41.732,31.854,42.116,32,42.5,32
	s0.768-0.146,1.061-0.439c0.586-0.586,0.586-1.535,0-2.121L42.121,28h3.758l3.561,3.561C49.732,31.854,50.116,32,50.5,32
	s0.768-0.146,1.061-0.439c0.586-0.586,0.586-1.535,0-2.121L50.121,28H51.5C52.328,28,53,27.328,53,26.5z"/>
<g>
</g>
<g>
</g>
<g>
</g>
<g>
</g>
<g>
</g>
<g>
</g>
<g>
</g>
<g>
</g>
<g>
</g>
<g>
</g>
<g>
</g>
<g>
</g>
<g>
</g>
<g>
</g>
<g>
</g>
</svg>
